<?xml version="1.0" encoding="UTF-8"?>
<svg id="Lag_1" data-name="Lag 1" xmlns="http://www.w3.org/2000/svg" viewBox="0 0 256 256">
  <defs>
    <style>
      .cls-1 {
        fill: #0a0a0a;
        stroke-width: 0px;
      }
    </style>
  </defs>
  <path class="cls-1" d="m166.84,177.35c-7.13-6.15-13.89-12.75-20.22-19.71-3.97-4.38-7.76-8.9-11.36-13.56-2.34-2.99-4.6-6.05-6.76-9.16-4.52-6.43-8.72-13.11-12.54-20.02-1.22-2.18-2.4-4.36-3.54-6.58-3.54-6.84-6.74-13.91-9.59-21.14-1.57-3.99-3.03-8.06-4.38-12.18-1.67-5.03-3.16-10.14-4.48-15.31-2.28-9.02-4.05-18.27-5.23-27.67-1.16-9.16-1.77-18.51-1.81-27.98h0c-9.45.84-18.8,2.08-28,3.75-.35.06-.69.12-1.04.18-9.08,1.67-18.04,3.73-26.82,6.15-.63.16-1.24.35-1.85.51-8.74,2.48-17.33,5.31-25.74,8.49.63,9.75,1.69,19.39,3.2,28.87.49,3.2,1.04,6.39,1.65,9.55,1.16,6.21,2.52,12.36,4.05,18.45,7.1-3.07,14.36-5.83,21.78-8.27,1.51-.5,3-1.05,4.46-1.69l.37-.16c-1.98-8.41-4.19-18.65-5.37-27.33,6.31-1.87,12.71-3.52,19.2-4.97,2.71-.59,5.44-1.14,8.17-1.67,1.2,9.37,2.89,18.55,5.05,27.57.73,3.03,1.53,6.05,2.36,9.04,1.69,6.07,3.6,12.06,5.72,17.94,1.89,5.25,3.95,10.43,6.17,15.5,1.63,3.75,3.34,7.43,5.15,11.08,2.75,5.6,5.7,11.08,8.84,16.41,2,3.4,4.05,6.74,6.21,10.04,3.12,4.83,6.41,9.55,9.88,14.15,3.42,4.58,7.01,9.06,10.75,13.4,2.38,2.81,4.85,5.56,7.37,8.25,6.39,6.82,13.13,13.32,20.22,19.41-1.26,1.36-2.57,2.71-3.87,4.05-5.25,5.38-10.71,10.57-16.35,15.54-6.9-6.09-13.52-12.48-19.83-19.16l-.39-.43c-6.37-6.8-12.42-13.93-18.12-21.32-.98-1.26-1.93-2.55-2.89-3.83-4.64-6.27-9.06-12.73-13.2-19.37-1.16-1.85-2.28-3.73-3.4-5.6-3.77-6.37-7.31-12.91-10.57-19.59-.96-1.91-1.87-3.85-2.79-5.78-3.34-7.21-6.39-14.6-9.14-22.13-.47-1.3-.96-2.63-1.4-3.95-9,2.77-17.74,6.07-26.23,9.9,1.67,4.76,3.44,9.49,5.36,14.13,1.61,4.01,3.32,7.96,5.11,11.89,2.16,4.72,4.42,9.41,6.8,13.99,1.91,3.73,3.91,7.39,5.95,11.02,2.59,4.52,5.25,8.96,8.04,13.34,2.28,3.6,4.64,7.15,7.09,10.65,2.89,4.17,5.88,8.29,9,12.3,2.83,3.73,5.76,7.37,8.78,10.93,3.03,3.62,6.17,7.17,9.37,10.63,3.97,4.32,8.06,8.51,12.26,12.58,2.61,2.52,5.25,5.01,7.94,7.45,7.13,6.48,14.56,12.6,22.28,18.41,7.72-5.8,15.15-11.93,22.28-18.41.41-.37.79-.71,1.18-1.08,6.6-6.05,12.95-12.38,19.02-18.96.59-.63,1.18-1.28,1.75-1.93,5.74-6.31,11.2-12.85,16.41-19.63-5.13-3.42-10.12-7.07-14.95-10.93-2.48-1.96-4.93-3.97-7.33-6.05Z"/>
  <path class="cls-1" d="m229.56,23.2c-1.38-.53-2.75-1.06-4.15-1.59-8.98-3.38-18.19-6.36-27.56-8.91,0,0,0,0-.01,0-.39,9.59-1.32,19.06-2.73,28.34,4.03,1.16,8,2.42,11.95,3.75,5.03,1.71,10,3.56,14.91,5.54-.96,5.62-2.08,11.18-3.36,16.68-.86,3.73-1.81,7.43-2.83,11.1-8.59-3.67-17.43-6.84-26.45-9.55l-2.63-.77c-8.04-2.32-16.25-4.26-24.6-5.8-2.97-.55-5.99-1.06-9-1.49-3.38-9.39-5.95-19.16-7.66-29.22,7.51.79,14.97,1.87,22.3,3.26,1.32-9.18,2.1-18.57,2.28-28.08-8.9-1.57-17.94-2.77-27.08-3.58-.28-.02-.59-.04-.9-.06-8.94-.77-17.98-1.16-27.12-1.16,0,9.51.65,18.88,1.95,28.04,1.3,9.61,3.3,19,5.95,28.12,1.63,5.72,3.52,11.34,5.68,16.84,1.53,3.99,3.2,7.92,4.97,11.79h.02c3.28,7.15,6.98,14.07,11.06,20.73,2.04,3.3,4.15,6.54,6.35,9.71,3.69,5.33,7.62,10.47,11.79,15.39,2.18-3.69,4.26-7.45,6.23-11.28,2.79-5.29,5.36-10.69,7.76-16.21-3.1-4.17-5.99-8.49-8.67-12.95,4.26,1,8.45,2.12,12.6,3.36,9.04,2.67,17.84,5.89,26.35,9.61-3.01,7.84-6.37,15.52-10.08,23.01-.41.88-.83,1.73-1.28,2.61-3.89,7.74-8.12,15.27-12.69,22.58,1.98,1.77,3.99,3.5,6.05,5.19.02,0,.02.02.04.02,5.19,4.26,10.59,8.27,16.19,11.99.51-.79,1.02-1.59,1.51-2.4,4.44-7.13,8.61-14.44,12.48-21.95.43-.81.86-1.65,1.26-2.48,3.87-7.62,7.43-15.43,10.65-23.4.33-.77.63-1.55.96-2.32,3.3-8.35,6.27-16.88,8.88-25.58.14-.49.28-.96.43-1.43,2.71-9.2,5.01-18.59,6.88-28.14.14-.71.28-1.43.41-2.14,1.69-8.9,2.99-17.94,3.89-27.1-7.49-3.65-15.15-7.03-22.97-10.08Z"/>
</svg>